<svg width="211" height="48" viewBox="0 0 211 48" fill="none" xmlns="http://www.w3.org/2000/svg">
<path d="M53.105 25.75H54.17V29.755C53.68 30.185 53.1 30.515 52.43 30.745C51.76 30.975 51.055 31.09 50.315 31.09C49.265 31.09 48.32 30.86 47.48 30.4C46.64 29.94 45.98 29.305 45.5 28.495C45.02 27.675 44.78 26.76 44.78 25.75C44.78 24.74 45.02 23.83 45.5 23.02C45.98 22.2 46.64 21.56 47.48 21.1C48.32 20.64 49.27 20.41 50.33 20.41C51.13 20.41 51.865 20.54 52.535 20.8C53.205 21.05 53.77 21.425 54.23 21.925L53.54 22.63C52.71 21.81 51.655 21.4 50.375 21.4C49.525 21.4 48.755 21.59 48.065 21.97C47.385 22.34 46.85 22.86 46.46 23.53C46.07 24.19 45.875 24.93 45.875 25.75C45.875 26.57 46.07 27.31 46.46 27.97C46.85 28.63 47.385 29.15 48.065 29.53C48.745 29.91 49.51 30.1 50.36 30.1C51.44 30.1 52.355 29.83 53.105 29.29V25.75ZM64.1966 23.11V31H63.1766V29.56C62.8966 30.04 62.5116 30.415 62.0216 30.685C61.5316 30.945 60.9716 31.075 60.3416 31.075C59.3116 31.075 58.4966 30.79 57.8966 30.22C57.3066 29.64 57.0116 28.795 57.0116 27.685V23.11H58.0766V27.58C58.0766 28.41 58.2816 29.04 58.6916 29.47C59.1016 29.9 59.6866 30.115 60.4466 30.115C61.2766 30.115 61.9316 29.865 62.4116 29.365C62.8916 28.855 63.1316 28.15 63.1316 27.25V23.11H64.1966ZM74.0493 27.385H67.4493C67.5093 28.205 67.8243 28.87 68.3943 29.38C68.9643 29.88 69.6843 30.13 70.5543 30.13C71.0443 30.13 71.4943 30.045 71.9043 29.875C72.3143 29.695 72.6693 29.435 72.9693 29.095L73.5693 29.785C73.2193 30.205 72.7793 30.525 72.2493 30.745C71.7293 30.965 71.1543 31.075 70.5243 31.075C69.7143 31.075 68.9943 30.905 68.3643 30.565C67.7443 30.215 67.2593 29.735 66.9093 29.125C66.5593 28.515 66.3843 27.825 66.3843 27.055C66.3843 26.285 66.5493 25.595 66.8793 24.985C67.2193 24.375 67.6793 23.9 68.2593 23.56C68.8493 23.22 69.5093 23.05 70.2393 23.05C70.9693 23.05 71.6243 23.22 72.2043 23.56C72.7843 23.9 73.2393 24.375 73.5693 24.985C73.8993 25.585 74.0643 26.275 74.0643 27.055L74.0493 27.385ZM70.2393 23.965C69.4793 23.965 68.8393 24.21 68.3193 24.7C67.8093 25.18 67.5193 25.81 67.4493 26.59H73.0443C72.9743 25.81 72.6793 25.18 72.1593 24.7C71.6493 24.21 71.0093 23.965 70.2393 23.965ZM78.3471 31.075C77.7071 31.075 77.0921 30.985 76.5021 30.805C75.9221 30.615 75.4671 30.38 75.1371 30.1L75.6171 29.26C75.9471 29.52 76.3621 29.735 76.8621 29.905C77.3621 30.065 77.8821 30.145 78.4221 30.145C79.1421 30.145 79.6721 30.035 80.0121 29.815C80.3621 29.585 80.5371 29.265 80.5371 28.855C80.5371 28.565 80.4421 28.34 80.2521 28.18C80.0621 28.01 79.8221 27.885 79.5321 27.805C79.2421 27.715 78.8571 27.63 78.3771 27.55C77.7371 27.43 77.2221 27.31 76.8321 27.19C76.4421 27.06 76.1071 26.845 75.8271 26.545C75.5571 26.245 75.4221 25.83 75.4221 25.3C75.4221 24.64 75.6971 24.1 76.2471 23.68C76.7971 23.26 77.5621 23.05 78.5421 23.05C79.0521 23.05 79.5621 23.12 80.0721 23.26C80.5821 23.39 81.0021 23.565 81.3321 23.785L80.8671 24.64C80.2171 24.19 79.4421 23.965 78.5421 23.965C77.8621 23.965 77.3471 24.085 76.9971 24.325C76.6571 24.565 76.4871 24.88 76.4871 25.27C76.4871 25.57 76.5821 25.81 76.7721 25.99C76.9721 26.17 77.2171 26.305 77.5071 26.395C77.7971 26.475 78.1971 26.56 78.7071 26.65C79.3371 26.77 79.8421 26.89 80.2221 27.01C80.6021 27.13 80.9271 27.335 81.1971 27.625C81.4671 27.915 81.6021 28.315 81.6021 28.825C81.6021 29.515 81.3121 30.065 80.7321 30.475C80.1621 30.875 79.3671 31.075 78.3471 31.075ZM85.6859 31.075C85.0459 31.075 84.4309 30.985 83.8409 30.805C83.2609 30.615 82.8059 30.38 82.4759 30.1L82.9559 29.26C83.2859 29.52 83.7009 29.735 84.2009 29.905C84.7009 30.065 85.2209 30.145 85.7609 30.145C86.4809 30.145 87.0109 30.035 87.3509 29.815C87.7009 29.585 87.8759 29.265 87.8759 28.855C87.8759 28.565 87.7809 28.34 87.5909 28.18C87.4009 28.01 87.1609 27.885 86.8709 27.805C86.5809 27.715 86.1959 27.63 85.7159 27.55C85.0759 27.43 84.5609 27.31 84.1709 27.19C83.7809 27.06 83.4459 26.845 83.1659 26.545C82.8959 26.245 82.7609 25.83 82.7609 25.3C82.7609 24.64 83.0359 24.1 83.5859 23.68C84.1359 23.26 84.9009 23.05 85.8809 23.05C86.3909 23.05 86.9009 23.12 87.4109 23.26C87.9209 23.39 88.3409 23.565 88.6709 23.785L88.2059 24.64C87.5559 24.19 86.7809 23.965 85.8809 23.965C85.2009 23.965 84.6859 24.085 84.3359 24.325C83.9959 24.565 83.8259 24.88 83.8259 25.27C83.8259 25.57 83.9209 25.81 84.1109 25.99C84.3109 26.17 84.5559 26.305 84.8459 26.395C85.1359 26.475 85.5359 26.56 86.0459 26.65C86.6759 26.77 87.1809 26.89 87.5609 27.01C87.9409 27.13 88.2659 27.335 88.5359 27.625C88.8059 27.915 88.9409 28.315 88.9409 28.825C88.9409 29.515 88.6509 30.065 88.0709 30.475C87.5009 30.875 86.7059 31.075 85.6859 31.075ZM104.676 23.05C105.666 23.05 106.441 23.335 107.001 23.905C107.571 24.475 107.856 25.315 107.856 26.425V31H106.791V26.53C106.791 25.71 106.591 25.085 106.191 24.655C105.801 24.225 105.246 24.01 104.526 24.01C103.706 24.01 103.061 24.265 102.591 24.775C102.121 25.275 101.886 25.97 101.886 26.86V31H100.821V26.53C100.821 25.71 100.621 25.085 100.221 24.655C99.8306 24.225 99.2706 24.01 98.5406 24.01C97.7306 24.01 97.0856 24.265 96.6056 24.775C96.1356 25.275 95.9006 25.97 95.9006 26.86V31H94.8356V23.11H95.8556V24.55C96.1356 24.07 96.5256 23.7 97.0256 23.44C97.5256 23.18 98.1006 23.05 98.7506 23.05C99.4106 23.05 99.9806 23.19 100.461 23.47C100.951 23.75 101.316 24.165 101.556 24.715C101.846 24.195 102.261 23.79 102.801 23.5C103.351 23.2 103.976 23.05 104.676 23.05ZM117.227 23.11L113.282 31.945C112.962 32.685 112.592 33.21 112.172 33.52C111.752 33.83 111.247 33.985 110.657 33.985C110.277 33.985 109.922 33.925 109.592 33.805C109.262 33.685 108.977 33.505 108.737 33.265L109.232 32.47C109.632 32.87 110.112 33.07 110.672 33.07C111.032 33.07 111.337 32.97 111.587 32.77C111.847 32.57 112.087 32.23 112.307 31.75L112.652 30.985L109.127 23.11H110.237L113.207 29.815L116.177 23.11H117.227ZM124.768 31.075C124.128 31.075 123.513 30.985 122.923 30.805C122.343 30.615 121.888 30.38 121.558 30.1L122.038 29.26C122.368 29.52 122.783 29.735 123.283 29.905C123.783 30.065 124.303 30.145 124.843 30.145C125.563 30.145 126.093 30.035 126.433 29.815C126.783 29.585 126.958 29.265 126.958 28.855C126.958 28.565 126.863 28.34 126.673 28.18C126.483 28.01 126.243 27.885 125.953 27.805C125.663 27.715 125.278 27.63 124.798 27.55C124.158 27.43 123.643 27.31 123.253 27.19C122.863 27.06 122.528 26.845 122.248 26.545C121.978 26.245 121.843 25.83 121.843 25.3C121.843 24.64 122.118 24.1 122.668 23.68C123.218 23.26 123.983 23.05 124.963 23.05C125.473 23.05 125.983 23.12 126.493 23.26C127.003 23.39 127.423 23.565 127.753 23.785L127.288 24.64C126.638 24.19 125.863 23.965 124.963 23.965C124.283 23.965 123.768 24.085 123.418 24.325C123.078 24.565 122.908 24.88 122.908 25.27C122.908 25.57 123.003 25.81 123.193 25.99C123.393 26.17 123.638 26.305 123.928 26.395C124.218 26.475 124.618 26.56 125.128 26.65C125.758 26.77 126.263 26.89 126.643 27.01C127.023 27.13 127.348 27.335 127.618 27.625C127.888 27.915 128.023 28.315 128.023 28.825C128.023 29.515 127.733 30.065 127.153 30.475C126.583 30.875 125.788 31.075 124.768 31.075ZM134.012 23.05C135.002 23.05 135.787 23.34 136.367 23.92C136.957 24.49 137.252 25.325 137.252 26.425V31H136.187V26.53C136.187 25.71 135.982 25.085 135.572 24.655C135.162 24.225 134.577 24.01 133.817 24.01C132.967 24.01 132.292 24.265 131.792 24.775C131.302 25.275 131.057 25.97 131.057 26.86V31H129.992V19.87H131.057V24.49C131.347 24.03 131.747 23.675 132.257 23.425C132.767 23.175 133.352 23.05 134.012 23.05ZM142.903 23.05C143.933 23.05 144.723 23.31 145.273 23.83C145.823 24.34 146.098 25.1 146.098 26.11V31H145.078V29.77C144.838 30.18 144.483 30.5 144.013 30.73C143.553 30.96 143.003 31.075 142.363 31.075C141.483 31.075 140.783 30.865 140.263 30.445C139.743 30.025 139.483 29.47 139.483 28.78C139.483 28.11 139.723 27.57 140.203 27.16C140.693 26.75 141.468 26.545 142.528 26.545H145.033V26.065C145.033 25.385 144.843 24.87 144.463 24.52C144.083 24.16 143.528 23.98 142.798 23.98C142.298 23.98 141.818 24.065 141.358 24.235C140.898 24.395 140.503 24.62 140.173 24.91L139.693 24.115C140.093 23.775 140.573 23.515 141.133 23.335C141.693 23.145 142.283 23.05 142.903 23.05ZM142.528 30.235C143.128 30.235 143.643 30.1 144.073 29.83C144.503 29.55 144.823 29.15 145.033 28.63V27.34H142.558C141.208 27.34 140.533 27.81 140.533 28.75C140.533 29.21 140.708 29.575 141.058 29.845C141.408 30.105 141.898 30.235 142.528 30.235ZM153.056 23.05C153.796 23.05 154.466 23.22 155.066 23.56C155.666 23.89 156.136 24.36 156.476 24.97C156.816 25.58 156.986 26.275 156.986 27.055C156.986 27.845 156.816 28.545 156.476 29.155C156.136 29.765 155.666 30.24 155.066 30.58C154.476 30.91 153.806 31.075 153.056 31.075C152.416 31.075 151.836 30.945 151.316 30.685C150.806 30.415 150.386 30.025 150.056 29.515V33.91H148.991V23.11H150.011V24.67C150.331 24.15 150.751 23.75 151.271 23.47C151.801 23.19 152.396 23.05 153.056 23.05ZM152.981 30.13C153.531 30.13 154.031 30.005 154.481 29.755C154.931 29.495 155.281 29.13 155.531 28.66C155.791 28.19 155.921 27.655 155.921 27.055C155.921 26.455 155.791 25.925 155.531 25.465C155.281 24.995 154.931 24.63 154.481 24.37C154.031 24.11 153.531 23.98 152.981 23.98C152.421 23.98 151.916 24.11 151.466 24.37C151.026 24.63 150.676 24.995 150.416 25.465C150.166 25.925 150.041 26.455 150.041 27.055C150.041 27.655 150.166 28.19 150.416 28.66C150.676 29.13 151.026 29.495 151.466 29.755C151.916 30.005 152.421 30.13 152.981 30.13ZM166.027 27.385H159.427C159.487 28.205 159.802 28.87 160.372 29.38C160.942 29.88 161.662 30.13 162.532 30.13C163.022 30.13 163.472 30.045 163.882 29.875C164.292 29.695 164.647 29.435 164.947 29.095L165.547 29.785C165.197 30.205 164.757 30.525 164.227 30.745C163.707 30.965 163.132 31.075 162.502 31.075C161.692 31.075 160.972 30.905 160.342 30.565C159.722 30.215 159.237 29.735 158.887 29.125C158.537 28.515 158.362 27.825 158.362 27.055C158.362 26.285 158.527 25.595 158.857 24.985C159.197 24.375 159.657 23.9 160.237 23.56C160.827 23.22 161.487 23.05 162.217 23.05C162.947 23.05 163.602 23.22 164.182 23.56C164.762 23.9 165.217 24.375 165.547 24.985C165.877 25.585 166.042 26.275 166.042 27.055L166.027 27.385ZM162.217 23.965C161.457 23.965 160.817 24.21 160.297 24.7C159.787 25.18 159.497 25.81 159.427 26.59H165.022C164.952 25.81 164.657 25.18 164.137 24.7C163.627 24.21 162.987 23.965 162.217 23.965Z" fill="#F39C12"/>
<g clip-path="url(#clip0)">
<path d="M32.627 14.3556L26.5274 8.25599C26.1859 7.91467 25.6324 7.91467 25.291 8.25599L10.1244 23.4225C10.0021 23.5449 9.91873 23.7009 9.88504 23.8705L8.37383 31.4813C8.31706 31.7676 8.4067 32.0634 8.61315 32.2699C8.77879 32.4354 9.00179 32.5259 9.23143 32.5259C9.28797 32.5259 9.34509 32.5204 9.40174 32.5091L17.0126 30.9979C17.1823 30.9642 17.3381 30.8808 17.4605 30.7586L32.627 15.5921C32.9685 15.2506 32.9685 14.6971 32.627 14.3556ZM10.6965 28.7627L11.4864 24.7845L16.0985 29.3967L12.1204 30.1866L10.6965 28.7627Z" fill="#F39C12"/>
<path d="M25.0031 34.469C16.6416 30.9685 11.1983 36.7576 9.57263 37.6367C7.49455 38.7606 4.56702 40.0812 3.88649 37.795C3.47593 36.4158 5.69577 34.9415 7.16571 34.4821C8.23815 34.1469 7.78015 32.4587 6.70083 32.796C4.41817 33.5095 1.6944 35.4323 2.17199 38.1394C2.52683 40.1509 5.04776 41.9856 9.90847 39.4349C13.4415 37.5813 15.8415 33.7417 23.2828 35.73C25.7272 36.383 27.7031 37.9763 28.5492 40.3994C28.9185 41.4567 30.6081 41.002 30.2354 39.9346C29.3336 37.3521 27.5092 35.5182 25.0031 34.469Z" fill="#F39C12"/>
</g>
<g clip-path="url(#clip1)">
<path d="M208.627 14.3556L202.527 8.25599C202.186 7.91467 201.632 7.91467 201.291 8.25599L186.124 23.4225C186.002 23.5449 185.919 23.7009 185.885 23.8705L184.374 31.4813C184.317 31.7676 184.407 32.0634 184.613 32.2699C184.779 32.4354 185.002 32.5259 185.231 32.5259C185.288 32.5259 185.345 32.5204 185.402 32.5091L193.013 30.9979C193.182 30.9642 193.338 30.8808 193.461 30.7586L208.627 15.5921C208.968 15.2506 208.968 14.6971 208.627 14.3556ZM186.696 28.7627L187.486 24.7845L192.099 29.3967L188.12 30.1866L186.696 28.7627Z" fill="#F39C12"/>
<path d="M201.003 34.469C192.642 30.9685 187.198 36.7576 185.573 37.6367C183.495 38.7606 180.567 40.0812 179.886 37.795C179.476 36.4158 181.696 34.9415 183.166 34.4821C184.238 34.1469 183.78 32.4587 182.701 32.796C180.418 33.5095 177.694 35.4323 178.172 38.1394C178.527 40.1509 181.048 41.9856 185.908 39.4349C189.441 37.5813 191.842 33.7417 199.283 35.73C201.727 36.383 203.703 37.9763 204.549 40.3994C204.919 41.4567 206.608 41.002 206.235 39.9346C205.334 37.3521 203.509 35.5182 201.003 34.469Z" fill="#F39C12"/>
</g>
<line x1="0.995209" y1="0.75" x2="210.005" y2="0.75" stroke="#2C3E50" stroke-width="0.5"/>
<line x1="0.995209" y1="47.75" x2="210.005" y2="47.75" stroke="#2C3E50" stroke-width="0.5"/>
<defs>
<clipPath id="clip0">
<rect width="33" height="33" fill="white" transform="translate(1 8)"/>
</clipPath>
<clipPath id="clip1">
<rect width="33" height="33" fill="white" transform="translate(177 8)"/>
</clipPath>
</defs>
</svg>
